<svg width="148" height="41" xmlns="http://www.w3.org/2000/svg"><g fill="#FF8D36" fill-rule="evenodd"><path d="M56.628 30.08c0 .516.42.934.932.934h4.667a.934.934 0 0 0 .934-.933V10.624a.937.937 0 0 0-.934-.935H46.613a.936.936 0 0 0-.93.935v7.22c0 4.507-1.05 7.437-3.926 8.33-.847.262-1.093.457-.847 1.367l.778 2.863c.193.717.665.898 1.491.748 5.557-.997 8.724-5.792 8.724-13.376v-3.605h4.727l-.002 15.91zM25.486 5.18l.352-3.458C25.912.99 25.464.63 24.743.63H1.185C.395.629 0 .979 0 1.722v3.239c0 .877.351 1.316 1.229 1.316h8.013v23.69c0 .918.087 1.05 1.008 1.05h4.945c.879 0 1.01-.175 1.01-1.138V6.277h7.707c.918 0 1.487-.222 1.574-1.096"/><path d="M27.101 17.925c.306-2.06 1.752-3.811 3.94-3.811 2.277 0 3.373 1.927 3.373 3.81H27.1zm13.75 2.888c.018-6.684-2.47-11.779-9.414-11.779-6.745 0-11.342 4.466-11.342 11.254 0 7.005 4.422 11.298 11.384 11.298 2.54-.002 5.614-.418 7.926-1.491.7-.325.971-.676.778-1.409l-.778-2.967c-.161-.619-.7-.705-1.226-.482a14.11 14.11 0 0 1-5.516 1.137c-2.674-.001-5.124-1.53-5.65-4.29h12.261c1.095 0 1.574-.22 1.576-1.271zM146.13 9.689h-4.694a.938.938 0 0 0-.935.935v7.1h-6.793v-7.1a.942.942 0 0 0-.941-.935h-4.692a.94.94 0 0 0-.937.935v19.458c0 .519.424.935.937.935h4.692c.515 0 .94-.416.94-.935V22.41h6.794v7.673c0 .519.422.935.935.935h4.692a.937.937 0 0 0 .941-.935V10.624a.94.94 0 0 0-.939-.935m-23.43 0h-4.617a.93.93 0 0 0-.923.935v2.651l-7.207 7.287v-9.938a.93.93 0 0 0-.923-.935h-4.616a.931.931 0 0 0-.923.935v19.458c0 .519.414.935.923.935h4.616a.928.928 0 0 0 .923-.935V27.22l7.207-7.286-.002 10.15a.93.93 0 0 0 .925.934h4.614a.927.927 0 0 0 .922-.935V10.624a.93.93 0 0 0-.92-.935M89.871 26.744c-1.165 0-2.441-.554-3.25-1.228-.1-.33-.17-.68-.204-1.052v-8.05c.697-.752 2.32-1.582 3.592-1.582 3.256 0 4.068 3.253 4.068 5.913 0 2.622-1.015 6-4.206 6m-17.21-6c0-2.66.812-5.913 4.067-5.913 1.273 0 2.895.83 3.592 1.583v8.05a5.35 5.35 0 0 1-.203 1.05c-.809.675-2.085 1.23-3.25 1.23-3.192 0-4.207-3.378-4.207-6M91.712 9.492c-1.993 0-4.05.838-5.295 1.898V7.844h-.029V1.026c0-1.028-.616-1.095-1.4-.99L81.291.54c-.608.085-.972.324-.972 1.135v9.716c-1.245-1.06-3.302-1.898-5.295-1.898-6.107 0-9.197 5.261-9.197 10.867 0 5.793 3.141 11.69 9.589 11.69 1.687 0 3.272-.507 4.43-1.36v8.842c0 1.006.484 1.358 1.358 1.358h4.328c.874 0 1.357-.352 1.357-1.358V30.69c1.158.853 2.743 1.358 4.431 1.358 6.448 0 9.588-5.896 9.588-11.689 0-5.606-3.09-10.867-9.197-10.867"/></g></svg>